<?xml version="1.0" encoding="UTF-8"?>
<svg xmlns="http://www.w3.org/2000/svg" version="1.1" viewBox="0 0 1205.4431763 154">
  <!-- Generator: Adobe Illustrator 28.7.1, SVG Export Plug-In . SVG Version: 1.2.0 Build 142)  -->
  <g>
    <g id="Calque_1">
      <g>
        <polygon points="1097.5029907 4.4081421 1097.5029907 34.7991943 1133.9231567 34.7991943 1133.9231567 149.5918579 1133.9331665 149.5918579 1169.03302 149.5918579 1169.03302 34.7991943 1205.4431763 34.7991943 1205.4431763 4.4081421 1097.5029907 4.4081421"/>
        <polygon points="1048.5601196 4.4081421 1048.5501099 4.4081421 1024.829895 67.9187012 1000.8599243 4.4081421 960.2700806 4.4081421 993.0940552 73.9696655 960.3870239 149.5918579 1000.8400269 149.5918579 1024.8399048 83.4991455 1048.3499146 149.5918579 1088.5601196 149.5918579 1055.8499146 73.9696655 1088.6699829 4.4081421 1048.5601196 4.4081421"/>
        <polygon points="879.6810303 92.3660889 879.6810303 92.3563232 943.5670166 92.3563232 943.5670166 63.1246948 879.6810303 63.1246948 879.6810303 35.0039062 948.7520142 35.0039062 948.7520142 4.4081421 844.6019897 4.4081421 844.6019897 149.5918579 951.4370728 149.5918579 951.4370728 119.0641479 879.6810303 119.0641479 879.6810303 92.3660889"/>
        <polygon points="797.5939941 114.8838501 751.3120117 4.4081421 695.3649902 4.4081421 695.3649902 149.5918579 730.4450073 149.5918579 730.4450073 39.1157837 775.4429932 149.5918579 831.8699951 149.5918579 831.8699951 4.4081421 797.5939941 4.4081421 797.5939941 114.8838501"/>
        <polygon points="432.5219727 119.2729492 408.7039795 4.4081421 345.25 4.4081421 345.25 149.5918579 380.427002 149.5918579 380.427002 30.4598389 380.5740356 30.0097046 406.4989624 149.5918579 458.6919556 149.5918579 484.8619995 27.6707153 484.8619995 149.5918579 519.7940063 149.5918579 519.7940063 4.4081421 456.5839844 4.4081421 432.5219727 119.2729492"/>
        <path d="M607.5794678,0c-42.5280151,0-77,34.4716187-77,77,0,42.5280151,34.4719849,77,77,77,42.5289917,0,77-34.4719849,77-77,0-42.5283813-34.4710083-77-77-77ZM607.5794678,119.2739868c-23.3079834,0-42.2730103-18.9660034-42.2730103-42.2739868,0-23.3078003,18.9650269-42.2734985,42.2730103-42.2734985s42.2739868,18.9656982,42.2739868,42.2734985c0,23.3079834-18.9660034,42.2739868-42.2739868,42.2739868Z"/>
        <polygon points="213.6199951 62.2866211 213.6199951 4.2996216 166.1879883 4.2996216 118.757019 62.2849731 118.757019 4.2996216 71.3251343 4.2996216 0 91.7128296 0 149.7003174 47.4321289 149.7003174 94.8624878 91.5710449 94.8624878 149.4833374 142.2949829 149.4833374 189.7269897 91.496521 189.7269897 149.4833374 237.1589966 149.4833374 308.4840088 62.2866211 308.4840088 4.2996216 261.052002 4.2996216 213.6199951 62.2866211"/>
      </g>
    </g>
  </g>
</svg>