<svg width="136" height="26" viewBox="0 0 136 26" fill="none" xmlns="http://www.w3.org/2000/svg">
<path d="M135.015 5.787C134.452 6.12817 133.975 6.58509 133.467 6.99327C131.822 8.3092 130.194 9.63731 128.555 10.9593C128.499 11.002 128.438 11.0446 128.328 11.1238C128.328 10.9654 128.328 10.8558 128.328 10.7461C128.328 7.39536 128.328 4.04461 128.328 0.687779C128.328 0.559841 128.31 0.437996 128.304 0.310059C128.347 0.310059 128.389 0.310059 128.432 0.310059C128.444 0.431904 128.555 0.468457 128.634 0.535472C129.864 1.5407 131.093 2.55201 132.329 3.55114C133.222 4.27612 134.122 5.0011 135.021 5.71999C135.015 5.74435 135.015 5.76872 135.015 5.787Z" fill="#38444B"/>
<path d="M101.539 17.6948C101.213 18.143 100.9 18.5791 100.592 19.0151C99.0609 21.1955 97.6258 23.4304 96.2933 25.7441C96.227 25.8592 96.1908 25.9864 96.0039 25.9864C94.2493 25.9803 92.5007 25.9803 90.7401 25.9803C90.7159 25.8228 90.8184 25.732 90.8727 25.629C92.8263 21.995 95.1356 18.5912 97.5716 15.2721C97.7585 15.0177 98.0781 14.7634 98.0781 14.5029C98.0781 14.2485 97.7585 13.9881 97.5776 13.7337C95.1416 10.4026 92.8263 6.99266 90.8606 3.3526C90.8064 3.25569 90.7581 3.15273 90.6858 3.01948C91.5299 3.01948 92.3258 3.01948 93.1217 3.01948C94.0382 3.01948 94.9487 3.02554 95.8652 3.01343C96.0823 3.01343 96.1968 3.07399 96.3054 3.26781C97.8429 5.94485 99.5252 8.52499 101.328 11.0264C101.491 11.2505 101.557 11.2989 101.75 11.0385C103.553 8.53105 105.241 5.95697 106.779 3.27992C106.893 3.08005 107.014 3.01343 107.243 3.01343C113.701 3.01948 120.158 3.01948 126.616 3.01343C126.899 3.01343 126.966 3.09216 126.96 3.36471C126.948 4.61844 126.948 5.87823 126.96 7.13196C126.966 7.40451 126.899 7.4893 126.616 7.48324C124.662 7.47113 122.709 7.48325 120.755 7.47113C120.466 7.47113 120.394 7.54987 120.394 7.83453C120.4 13.7519 120.4 19.6693 120.406 25.5866C120.406 25.8955 120.345 25.9985 120.014 25.9924C118.699 25.9682 117.391 25.9742 116.076 25.9924C115.775 25.9985 115.715 25.9016 115.715 25.623C115.721 19.7177 115.721 13.8064 115.721 7.90115C115.721 7.42268 115.775 7.47719 115.305 7.47719C113.58 7.47719 111.862 7.48325 110.137 7.47113C109.884 7.47113 109.751 7.56198 109.619 7.76791C108.214 9.98465 106.712 12.1287 105.139 14.2243C104.976 14.4363 104.976 14.5695 105.139 14.7876C107.551 18.0097 109.812 21.3288 111.783 24.8416C111.952 25.1445 112.115 25.4534 112.284 25.7562C112.374 25.9137 112.392 25.9924 112.163 25.9924C110.481 25.9864 108.805 25.9864 107.122 25.9924C106.911 25.9924 106.857 25.8592 106.785 25.7259C105.235 23.0307 103.535 20.4324 101.708 17.9249C101.666 17.8462 101.611 17.7856 101.539 17.6948Z" fill="#38444B"/>
<path d="M65.8188 16.5197C65.8188 16.3865 65.8188 16.2653 65.8188 16.1442C65.8188 11.8924 65.8188 7.64069 65.8127 3.38894C65.8127 3.11033 65.8743 3.01343 66.1763 3.01948C67.5259 3.03765 68.8817 3.0316 70.2314 3.01948C70.4717 3.01948 70.5334 3.08611 70.5334 3.32232C70.5272 10.778 70.5272 18.2398 70.5334 25.6955C70.5334 25.9378 70.4594 25.9983 70.2252 25.9923C68.7955 25.9802 67.3718 25.9802 65.9421 25.9923C65.5353 25.9923 65.295 25.8287 65.1224 25.4653C62.571 19.9417 59.2308 14.9329 55.0277 10.4752C54.8552 10.2874 54.6703 10.1118 54.4916 9.9301C54.4792 9.91798 54.4546 9.91798 54.3991 9.90587C54.3991 10.027 54.3991 10.136 54.3991 10.245C54.3991 15.3689 54.3991 20.4989 54.4053 25.6228C54.4053 25.9075 54.3437 25.9983 54.0417 25.9923C52.6982 25.9741 51.3609 25.9802 50.0174 25.9923C49.777 25.9923 49.7092 25.9317 49.7092 25.6894C49.7154 18.2337 49.7154 10.772 49.7092 3.31626C49.7092 3.08005 49.7709 3.01343 50.0112 3.01343C51.1945 3.02554 52.3716 3.02554 53.5548 3.01343C53.7644 3.01343 53.9246 3.06794 54.0848 3.18907C56.0569 4.679 57.8133 6.39303 59.4711 8.21002C61.7575 10.7114 63.7728 13.4066 65.5785 16.2653C65.6216 16.338 65.6709 16.4046 65.7202 16.4773C65.7325 16.4955 65.7572 16.4955 65.8188 16.5197Z" fill="#38444B"/>
<path d="M73.2263 14.494C73.2263 10.7802 73.2263 7.06645 73.2205 3.35269C73.2205 3.09824 73.267 3.01343 73.529 3.01343C78.4771 3.01949 83.4253 3.01949 88.3676 3.01343C88.6121 3.01343 88.6703 3.08613 88.6703 3.33452C88.6587 4.58859 88.6587 5.84267 88.6703 7.1028C88.6703 7.36331 88.5946 7.41178 88.3618 7.41178C84.9039 7.40572 81.446 7.41178 77.994 7.39966C77.7262 7.39966 77.6563 7.4663 77.6622 7.74498C77.6796 9.02935 77.6738 10.3198 77.6622 11.6041C77.6622 11.8768 77.7087 11.9737 77.9998 11.9737C80.666 11.9616 83.3321 11.9676 85.9983 11.9616C86.2603 11.9616 86.336 12.0161 86.336 12.3008C86.3185 13.5428 86.3185 14.7908 86.336 16.0328C86.3418 16.2933 86.2603 16.3418 86.0274 16.3357C83.3496 16.3296 80.6776 16.3357 77.9998 16.3236C77.7436 16.3236 77.6563 16.366 77.6622 16.6628C77.6796 18.2138 77.6738 19.7647 77.6622 21.3156C77.6622 21.5822 77.732 21.6428 77.9823 21.6428C81.4286 21.6367 84.8748 21.6428 88.321 21.6307C88.6005 21.6307 88.6761 21.7094 88.6703 21.9942C88.6529 23.2301 88.6587 24.4599 88.6703 25.6958C88.6703 25.9382 88.6005 25.9927 88.3793 25.9927C83.4195 25.9866 78.4655 25.9866 73.5057 25.9927C73.2379 25.9927 73.2205 25.8836 73.2205 25.6595C73.2321 21.9397 73.2263 18.2138 73.2263 14.494Z" fill="#38444B"/>
<path d="M20.3897 8.59278C19.5013 9.40055 18.6921 10.1906 17.9132 11.0161C16.2339 12.8026 14.7188 14.713 13.3315 16.7177C13.2159 16.8828 13.1003 16.9417 12.8934 16.9358C12.1206 16.924 11.3479 16.9299 10.5751 16.9358C10.3987 16.9358 10.2892 16.8946 10.1857 16.7472C8.6463 14.5302 6.96085 12.4253 5.06852 10.4795C4.45397 9.84276 3.81508 9.22956 3.13968 8.62226C3.06058 8.74018 3.09709 8.85221 3.09709 8.95244C3.09709 14.5066 3.09101 20.0608 3.10317 25.615C3.10317 25.9098 3.03624 25.9923 2.72593 25.9864C1.91058 25.9629 1.09524 25.9687 0.279894 25.9864C0.0486767 25.9923 0 25.9157 0 25.7093C0.00608466 18.687 0.00608466 11.6647 0 4.63646C0 4.4124 0.0730161 4.36523 0.292064 4.36523C1.13175 4.37703 1.96534 4.37703 2.80503 4.36523C2.98757 4.36523 3.12143 4.4124 3.26138 4.52443C5.98122 6.63525 8.3299 9.08806 10.4656 11.7472C10.8976 12.2897 11.3175 12.838 11.7556 13.3981C12.4005 12.5904 13.0151 11.7885 13.6601 11.0102C15.6132 8.65174 17.7672 6.47606 20.2011 4.5716C20.3775 4.43599 20.5479 4.36523 20.773 4.37113C21.5884 4.38292 22.4037 4.38292 23.2191 4.37113C23.4259 4.37113 23.5111 4.40651 23.5111 4.63646C23.505 11.6706 23.505 18.7047 23.5111 25.7388C23.5111 25.9452 23.4503 25.9982 23.2434 25.9923C22.3976 25.9805 21.5458 25.9746 20.7 25.9923C20.4323 25.9982 20.3958 25.9039 20.3958 25.6739C20.4019 20.6622 20.4019 15.6505 20.4019 10.6387C20.3897 9.97837 20.3897 9.31211 20.3897 8.59278Z" fill="#38444B"/>
<path d="M37.2347 3.01343C42.2001 3.01343 46.9262 6.81723 48.074 11.8829C49.2279 16.9789 46.871 22.0385 42.5623 24.5016C37.0689 27.6441 30.0412 25.6542 26.9723 20.085C23.8052 14.3399 26.0148 7.21156 31.9009 4.2207C33.4906 3.41383 35.1847 3.03163 37.2347 3.01343ZM28.6663 14.5037C28.6725 15.1832 28.74 15.8505 28.8934 16.5118C30.1333 21.7898 35.6818 24.3378 40.322 22.2387C44.3483 20.4187 46.2817 15.6564 44.6859 11.4704C43.0717 7.23583 38.542 5.06396 34.2824 6.48963C30.925 7.61196 28.6725 10.8273 28.6663 14.5037Z" fill="#38444B"/>
</svg>
